<?xml version="1.0" encoding="utf-8"?>
<!-- Generator: Adobe Illustrator 23.0.1, SVG Export Plug-In . SVG Version: 6.00 Build 0)  -->
<svg version="1.1" id="Layer_1" xmlns:sketch="http://www.bohemiancoding.com/sketch/ns"
	 xmlns="http://www.w3.org/2000/svg" xmlns:xlink="http://www.w3.org/1999/xlink" x="0px" y="0px" viewBox="0 0 46 46"
	 style="enable-background:new 0 0 46 46;" xml:space="preserve">
<style type="text/css">
	.st0{fill-rule:evenodd;clip-rule:evenodd;fill:#4285F4;}
	.st1{fill-rule:evenodd;clip-rule:evenodd;fill:#34A853;}
	.st2{fill-rule:evenodd;clip-rule:evenodd;fill:#FBBC05;}
	.st3{fill-rule:evenodd;clip-rule:evenodd;fill:#EA4335;}
	.st4{fill:none;}
</style>
<title>btn_google_light_normal_ios</title>
<desc>Created with Sketch.</desc>
<g transform="translate(-608.000000, -160.000000)" sketch:type="MSArtboardGroup">
</g>
<g id="logo_googleg_48dp" transform="translate(15.000000, 15.000000)" sketch:type="MSLayerGroup">
	<path id="Shape" sketch:type="MSShapeGroup" class="st0" d="M16.6,8.2c0-0.6-0.1-1.3-0.2-1.8H8v3.5h4.8C12.6,11,12,11.9,11,12.6
		v2.3H14C15.7,13.3,16.6,10.9,16.6,8.2L16.6,8.2z"/>
	<path sketch:type="MSShapeGroup" class="st1" d="M8,17c2.4,0,4.5-0.8,6-2.2L11,12.6c-0.8,0.5-1.8,0.9-3,0.9c-2.3,0-4.3-1.6-5-3.7H0
		V12C1.4,15,4.5,17,8,17L8,17z"/>
	<path sketch:type="MSShapeGroup" class="st2" d="M3,9.7C2.8,9.2,2.7,8.6,2.7,8S2.8,6.8,3,6.3V4H0c-0.6,1.2-1,2.6-1,4s0.3,2.8,1,4
		L3,9.7L3,9.7z"/>
	<path sketch:type="MSShapeGroup" class="st3" d="M8,2.6c1.3,0,2.5,0.5,3.4,1.3L14,1.3C12.5-0.1,10.4-1,8-1C4.5-1,1.4,1,0,4l3,2.3
		C3.7,4.2,5.7,2.6,8,2.6L8,2.6z"/>
	<path sketch:type="MSShapeGroup" class="st4" d="M-1-1h18v18H-1V-1z"/>
</g>
<g id="handles_square" sketch:type="MSLayerGroup">
</g>
</svg>
